<?xml version="1.0" encoding="UTF-8"?><svg xmlns="http://www.w3.org/2000/svg" xmlns:xlink="http://www.w3.org/1999/xlink" stroke-dasharray="none" shape-rendering="auto" font-family="'Dialog'" width="1172" text-rendering="auto" fill-opacity="1" contentScriptType="text/ecmascript" color-interpolation="auto" color-rendering="auto" preserveAspectRatio="xMidYMid meet" font-size="12" fill="black" stroke="black" image-rendering="auto" stroke-miterlimit="10" zoomAndPan="magnify" version="1.0" stroke-linecap="square" stroke-linejoin="miter" contentStyleType="text/css" font-style="normal" height="635" stroke-width="1" stroke-dashoffset="0" font-weight="normal" stroke-opacity="1">
<!--Generated by the Batik Graphics2D SVG Generator-->
<defs id="genericDefs"/>
<g>
<defs id="defs1">
<clipPath clipPathUnits="userSpaceOnUse" id="clipPath1">
<path d="M50 83 L1142 83 L1142 589 L50 589 L50 83 Z"/>
</clipPath>
<clipPath clipPathUnits="userSpaceOnUse" id="clipPath2">
<path d="M-1 -1 L1173 -1 L1173 636 L-1 636 L-1 -1 Z"/>
</clipPath>
<clipPath clipPathUnits="userSpaceOnUse" id="clipPath3">
<path d="M319 24 L854 24 L854 54 L319 54 L319 24 Z"/>
</clipPath>
</defs>
<g font-size="15" fill="white" text-rendering="geometricPrecision" font-family="'Ubuntu'" stroke-linejoin="round" stroke="white" stroke-width="0" stroke-miterlimit="0">
<rect x="51" y="84" clip-path="url(#clipPath1)" width="1090" height="504" stroke="none"/>
</g>
<g stroke-linecap="butt" font-size="15" fill="rgb(204,204,204)" text-rendering="geometricPrecision" font-family="'Ubuntu'" stroke-dasharray="3,3" stroke="rgb(204,204,204)">
<line clip-path="url(#clipPath1)" fill="none" x1="51" x2="51" y1="84" y2="588"/>
<line clip-path="url(#clipPath1)" fill="none" x1="150" x2="150" y1="84" y2="588"/>
<line clip-path="url(#clipPath1)" fill="none" x1="250" x2="250" y1="84" y2="588"/>
<line clip-path="url(#clipPath1)" fill="none" x1="350" x2="350" y1="84" y2="588"/>
<line clip-path="url(#clipPath1)" fill="none" x1="449" x2="449" y1="84" y2="588"/>
<line clip-path="url(#clipPath1)" fill="none" x1="549" x2="549" y1="84" y2="588"/>
<line clip-path="url(#clipPath1)" fill="none" x1="649" x2="649" y1="84" y2="588"/>
<line clip-path="url(#clipPath1)" fill="none" x1="748" x2="748" y1="84" y2="588"/>
<line clip-path="url(#clipPath1)" fill="none" x1="848" x2="848" y1="84" y2="588"/>
<line clip-path="url(#clipPath1)" fill="none" x1="948" x2="948" y1="84" y2="588"/>
<line clip-path="url(#clipPath1)" fill="none" x1="1047" x2="1047" y1="84" y2="588"/>
<line clip-path="url(#clipPath1)" fill="none" x1="51" x2="1141" y1="588" y2="588"/>
<line clip-path="url(#clipPath1)" fill="none" x1="51" x2="1141" y1="494" y2="494"/>
<line clip-path="url(#clipPath1)" fill="none" x1="51" x2="1141" y1="401" y2="401"/>
<line clip-path="url(#clipPath1)" fill="none" x1="51" x2="1141" y1="308" y2="308"/>
<line clip-path="url(#clipPath1)" fill="none" x1="51" x2="1141" y1="214" y2="214"/>
<line clip-path="url(#clipPath1)" fill="none" x1="51" x2="1141" y1="121" y2="121"/>
<rect x="168" y="567" clip-path="url(#clipPath1)" fill="rgb(0,0,139)" width="5" height="5" stroke="none"/>
<line clip-path="url(#clipPath1)" fill="none" x1="170" x2="230" y1="569" y2="565" stroke-dasharray="none" stroke="rgb(0,0,139)"/>
<rect x="228" y="563" clip-path="url(#clipPath1)" fill="rgb(0,0,139)" width="5" stroke-dasharray="none" height="5" stroke="none"/>
<line clip-path="url(#clipPath1)" fill="none" x1="230" x2="290" y1="565" y2="561" stroke-dasharray="none" stroke="rgb(0,0,139)"/>
<rect x="288" y="559" clip-path="url(#clipPath1)" fill="rgb(0,0,139)" width="5" stroke-dasharray="none" height="5" stroke="none"/>
<line clip-path="url(#clipPath1)" fill="none" x1="290" x2="409" y1="561" y2="557" stroke-dasharray="none" stroke="rgb(0,0,139)"/>
<rect x="407" y="555" clip-path="url(#clipPath1)" fill="rgb(0,0,139)" width="5" stroke-dasharray="none" height="5" stroke="none"/>
<line clip-path="url(#clipPath1)" fill="none" x1="409" x2="529" y1="557" y2="554" stroke-dasharray="none" stroke="rgb(0,0,139)"/>
<rect x="527" y="552" clip-path="url(#clipPath1)" fill="rgb(0,0,139)" width="5" stroke-dasharray="none" height="5" stroke="none"/>
<line clip-path="url(#clipPath1)" fill="none" x1="529" x2="768" y1="554" y2="551" stroke-dasharray="none" stroke="rgb(0,0,139)"/>
<rect x="766" y="549" clip-path="url(#clipPath1)" fill="rgb(0,0,139)" width="5" stroke-dasharray="none" height="5" stroke="none"/>
<line clip-path="url(#clipPath1)" fill="none" x1="768" x2="1007" y1="551" y2="549" stroke-dasharray="none" stroke="rgb(0,0,139)"/>
<rect x="1005" y="547" clip-path="url(#clipPath1)" fill="rgb(0,0,139)" width="5" stroke-dasharray="none" height="5" stroke="none"/>
<line clip-path="url(#clipPath1)" fill="none" x1="1007" x2="1127" y1="549" y2="549" stroke-dasharray="none" stroke="rgb(0,0,139)"/>
<rect x="1125" y="547" clip-path="url(#clipPath1)" fill="rgb(0,0,139)" width="5" stroke-dasharray="none" height="5" stroke="none"/>
<circle clip-path="url(#clipPath1)" fill="rgb(238,0,0)" r="2" stroke-dasharray="none" cx="170" cy="536" stroke="none"/>
<line clip-path="url(#clipPath1)" fill="none" x1="170" x2="230" y1="536" y2="512" stroke-dasharray="none" stroke="rgb(238,0,0)"/>
<circle clip-path="url(#clipPath1)" fill="rgb(238,0,0)" r="2" stroke-dasharray="none" cx="230" cy="512" stroke="none"/>
<line clip-path="url(#clipPath1)" fill="none" x1="230" x2="290" y1="512" y2="490" stroke-dasharray="none" stroke="rgb(238,0,0)"/>
<circle clip-path="url(#clipPath1)" fill="rgb(238,0,0)" r="2" stroke-dasharray="none" cx="290" cy="490" stroke="none"/>
<line clip-path="url(#clipPath1)" fill="none" x1="290" x2="409" y1="490" y2="447" stroke-dasharray="none" stroke="rgb(238,0,0)"/>
<circle clip-path="url(#clipPath1)" fill="rgb(238,0,0)" r="2" stroke-dasharray="none" cx="409" cy="447" stroke="none"/>
<line clip-path="url(#clipPath1)" fill="none" x1="409" x2="529" y1="447" y2="408" stroke-dasharray="none" stroke="rgb(238,0,0)"/>
<circle clip-path="url(#clipPath1)" fill="rgb(238,0,0)" r="2" stroke-dasharray="none" cx="529" cy="408" stroke="none"/>
<line clip-path="url(#clipPath1)" fill="none" x1="529" x2="768" y1="408" y2="340" stroke-dasharray="none" stroke="rgb(238,0,0)"/>
<circle clip-path="url(#clipPath1)" fill="rgb(238,0,0)" r="2" stroke-dasharray="none" cx="768" cy="340" stroke="none"/>
<line clip-path="url(#clipPath1)" fill="none" x1="768" x2="1007" y1="340" y2="284" stroke-dasharray="none" stroke="rgb(238,0,0)"/>
<circle clip-path="url(#clipPath1)" fill="rgb(238,0,0)" r="2" stroke-dasharray="none" cx="1007" cy="284" stroke="none"/>
<line clip-path="url(#clipPath1)" fill="none" x1="1007" x2="1127" y1="284" y2="258" stroke-dasharray="none" stroke="rgb(238,0,0)"/>
<circle clip-path="url(#clipPath1)" fill="rgb(238,0,0)" r="2" stroke-dasharray="none" cx="1127" cy="258" stroke="none"/>
<polygon fill="rgb(0,100,0)" stroke-dasharray="none" clip-path="url(#clipPath1)" points=" 170 566 173 571 167 571 170 566" stroke="none"/>
<line clip-path="url(#clipPath1)" fill="none" x1="170" x2="230" y1="569" y2="564" stroke-dasharray="none" stroke="rgb(0,100,0)"/>
<polygon fill="rgb(0,100,0)" stroke-dasharray="none" clip-path="url(#clipPath1)" points=" 230 561 233 566 227 566 230 561" stroke="none"/>
<line clip-path="url(#clipPath1)" fill="none" x1="230" x2="290" y1="564" y2="561" stroke-dasharray="none" stroke="rgb(0,100,0)"/>
<polygon fill="rgb(0,100,0)" stroke-dasharray="none" clip-path="url(#clipPath1)" points=" 290 558 293 563 287 563 290 558" stroke="none"/>
<line clip-path="url(#clipPath1)" fill="none" x1="290" x2="409" y1="561" y2="557" stroke-dasharray="none" stroke="rgb(0,100,0)"/>
<polygon fill="rgb(0,100,0)" stroke-dasharray="none" clip-path="url(#clipPath1)" points=" 409 554 412 559 406 559 409 554" stroke="none"/>
<line clip-path="url(#clipPath1)" fill="none" x1="409" x2="529" y1="557" y2="554" stroke-dasharray="none" stroke="rgb(0,100,0)"/>
<polygon fill="rgb(0,100,0)" stroke-dasharray="none" clip-path="url(#clipPath1)" points=" 529 551 532 556 526 556 529 551" stroke="none"/>
<line clip-path="url(#clipPath1)" fill="none" x1="529" x2="768" y1="554" y2="551" stroke-dasharray="none" stroke="rgb(0,100,0)"/>
<polygon fill="rgb(0,100,0)" stroke-dasharray="none" clip-path="url(#clipPath1)" points=" 768 548 771 553 765 553 768 548" stroke="none"/>
<line clip-path="url(#clipPath1)" fill="none" x1="768" x2="1007" y1="551" y2="549" stroke-dasharray="none" stroke="rgb(0,100,0)"/>
<polygon fill="rgb(0,100,0)" stroke-dasharray="none" clip-path="url(#clipPath1)" points=" 1007 546 1010 551 1004 551 1007 546" stroke="none"/>
<line clip-path="url(#clipPath1)" fill="none" x1="1007" x2="1127" y1="549" y2="549" stroke-dasharray="none" stroke="rgb(0,100,0)"/>
<polygon fill="rgb(0,100,0)" stroke-dasharray="none" clip-path="url(#clipPath1)" points=" 1127 546 1130 551 1124 551 1127 546" stroke="none"/>
<polygon fill="rgb(255,165,0)" stroke-dasharray="none" clip-path="url(#clipPath1)" points=" 167 536 170 533 173 536 170 539 167 536" stroke="none"/>
<line clip-path="url(#clipPath1)" fill="none" x1="170" x2="230" y1="536" y2="512" stroke-dasharray="none" stroke="rgb(255,165,0)"/>
<polygon fill="rgb(255,165,0)" stroke-dasharray="none" clip-path="url(#clipPath1)" points=" 227 512 230 509 233 512 230 515 227 512" stroke="none"/>
<line clip-path="url(#clipPath1)" fill="none" x1="230" x2="290" y1="512" y2="490" stroke-dasharray="none" stroke="rgb(255,165,0)"/>
<polygon fill="rgb(255,165,0)" stroke-dasharray="none" clip-path="url(#clipPath1)" points=" 287 490 290 487 293 490 290 493 287 490" stroke="none"/>
<line clip-path="url(#clipPath1)" fill="none" x1="290" x2="409" y1="490" y2="447" stroke-dasharray="none" stroke="rgb(255,165,0)"/>
<polygon fill="rgb(255,165,0)" stroke-dasharray="none" clip-path="url(#clipPath1)" points=" 406 447 409 444 412 447 409 450 406 447" stroke="none"/>
<line clip-path="url(#clipPath1)" fill="none" x1="409" x2="529" y1="447" y2="408" stroke-dasharray="none" stroke="rgb(255,165,0)"/>
<polygon fill="rgb(255,165,0)" stroke-dasharray="none" clip-path="url(#clipPath1)" points=" 526 408 529 405 532 408 529 411 526 408" stroke="none"/>
<line clip-path="url(#clipPath1)" fill="none" x1="529" x2="768" y1="408" y2="340" stroke-dasharray="none" stroke="rgb(255,165,0)"/>
<polygon fill="rgb(255,165,0)" stroke-dasharray="none" clip-path="url(#clipPath1)" points=" 765 340 768 337 771 340 768 343 765 340" stroke="none"/>
<line clip-path="url(#clipPath1)" fill="none" x1="768" x2="1007" y1="340" y2="285" stroke-dasharray="none" stroke="rgb(255,165,0)"/>
<polygon fill="rgb(255,165,0)" stroke-dasharray="none" clip-path="url(#clipPath1)" points=" 1004 285 1007 282 1010 285 1007 288 1004 285" stroke="none"/>
<line clip-path="url(#clipPath1)" fill="none" x1="1007" x2="1127" y1="285" y2="256" stroke-dasharray="none" stroke="rgb(255,165,0)"/>
<polygon fill="rgb(255,165,0)" stroke-dasharray="none" clip-path="url(#clipPath1)" points=" 1124 256 1127 253 1130 256 1127 259 1124 256" stroke="none"/>
<rect x="51" y="84" clip-path="url(#clipPath2)" fill="none" width="1090" stroke-dasharray="none" height="504" stroke="black"/>
</g>
<g text-rendering="geometricPrecision" font-size="13" font-family="'Arial'" stroke-linecap="butt">
<text xml:space="preserve" x="450" y="12" clip-path="url(#clipPath2)" stroke="none">Analytical vs simulated throughput</text>
<rect x="320" y="25" clip-path="url(#clipPath3)" fill="white" width="532" height="27" stroke="none"/>
<line clip-path="url(#clipPath3)" fill="none" x1="326" x2="340" y1="38" y2="38" stroke="rgb(0,0,139)"/>
<rect x="330" y="35" clip-path="url(#clipPath3)" fill="rgb(0,0,139)" width="7" height="7" stroke="none"/>
<text x="342" font-size="11" y="40" clip-path="url(#clipPath3)" stroke="none" xml:space="preserve">100B Analytical</text>
<line clip-path="url(#clipPath3)" fill="none" x1="454" x2="468" y1="38" y2="38" stroke="rgb(238,0,0)"/>
<circle clip-path="url(#clipPath3)" fill="rgb(238,0,0)" r="3" cx="461" cy="38" stroke="none"/>
<text x="470" font-size="11" y="40" clip-path="url(#clipPath3)" stroke="none" xml:space="preserve">2268B Analytical</text>
<line clip-path="url(#clipPath3)" fill="none" x1="590" x2="604" y1="38" y2="38" stroke="rgb(0,100,0)"/>
<polygon fill="rgb(0,100,0)" clip-path="url(#clipPath3)" points=" 597 33 602 41 592 41 597 33" stroke="none"/>
<text x="606" font-size="11" y="40" clip-path="url(#clipPath3)" stroke="none" xml:space="preserve">100B Simulated</text>
<line clip-path="url(#clipPath3)" fill="none" x1="720" x2="734" y1="38" y2="38" stroke="rgb(255,165,0)"/>
<polygon fill="rgb(255,165,0)" clip-path="url(#clipPath3)" points=" 723 38 727 34 731 38 727 42 723 38" stroke="none"/>
<text x="736" font-size="11" y="40" clip-path="url(#clipPath3)" stroke="none" xml:space="preserve">2268B Simulated</text>
<line clip-path="url(#clipPath2)" fill="none" x1="51" x2="1141" y1="82" y2="82"/>
<line clip-path="url(#clipPath2)" fill="none" x1="51" x2="1141" y1="590" y2="590"/>
<text xml:space="preserve" x="540" y="627" clip-path="url(#clipPath2)" stroke="none">Bitrate [Mbps]</text>
<line clip-path="url(#clipPath2)" fill="none" x1="51" x2="51" y1="78" y2="82"/>
<line clip-path="url(#clipPath2)" fill="none" x1="51" x2="51" y1="594" y2="590"/>
<text x="49" font-size="11" y="70" clip-path="url(#clipPath2)" stroke="none" xml:space="preserve">0</text>
<text x="49" font-size="11" y="605" clip-path="url(#clipPath2)" stroke="none" xml:space="preserve">0</text>
<line clip-path="url(#clipPath2)" fill="none" x1="70" x2="70" y1="80" y2="82"/>
<line clip-path="url(#clipPath2)" fill="none" x1="70" x2="70" y1="592" y2="590"/>
<line clip-path="url(#clipPath2)" fill="none" x1="90" x2="90" y1="80" y2="82"/>
<line clip-path="url(#clipPath2)" fill="none" x1="90" x2="90" y1="592" y2="590"/>
<line clip-path="url(#clipPath2)" fill="none" x1="110" x2="110" y1="80" y2="82"/>
<line clip-path="url(#clipPath2)" fill="none" x1="110" x2="110" y1="592" y2="590"/>
<line clip-path="url(#clipPath2)" fill="none" x1="130" x2="130" y1="80" y2="82"/>
<line clip-path="url(#clipPath2)" fill="none" x1="130" x2="130" y1="592" y2="590"/>
<line clip-path="url(#clipPath2)" fill="none" x1="150" x2="150" y1="78" y2="82"/>
<line clip-path="url(#clipPath2)" fill="none" x1="150" x2="150" y1="594" y2="590"/>
<text x="148" font-size="11" y="70" clip-path="url(#clipPath2)" stroke="none" xml:space="preserve">5</text>
<text x="148" font-size="11" y="605" clip-path="url(#clipPath2)" stroke="none" xml:space="preserve">5</text>
<line clip-path="url(#clipPath2)" fill="none" x1="170" x2="170" y1="80" y2="82"/>
<line clip-path="url(#clipPath2)" fill="none" x1="170" x2="170" y1="592" y2="590"/>
<line clip-path="url(#clipPath2)" fill="none" x1="190" x2="190" y1="80" y2="82"/>
<line clip-path="url(#clipPath2)" fill="none" x1="190" x2="190" y1="592" y2="590"/>
<line clip-path="url(#clipPath2)" fill="none" x1="210" x2="210" y1="80" y2="82"/>
<line clip-path="url(#clipPath2)" fill="none" x1="210" x2="210" y1="592" y2="590"/>
<line clip-path="url(#clipPath2)" fill="none" x1="230" x2="230" y1="80" y2="82"/>
<line clip-path="url(#clipPath2)" fill="none" x1="230" x2="230" y1="592" y2="590"/>
<line clip-path="url(#clipPath2)" fill="none" x1="250" x2="250" y1="78" y2="82"/>
<line clip-path="url(#clipPath2)" fill="none" x1="250" x2="250" y1="594" y2="590"/>
<text x="244" font-size="11" y="70" clip-path="url(#clipPath2)" stroke="none" xml:space="preserve">10</text>
<text x="244" font-size="11" y="605" clip-path="url(#clipPath2)" stroke="none" xml:space="preserve">10</text>
<line clip-path="url(#clipPath2)" fill="none" x1="270" x2="270" y1="80" y2="82"/>
<line clip-path="url(#clipPath2)" fill="none" x1="270" x2="270" y1="592" y2="590"/>
<line clip-path="url(#clipPath2)" fill="none" x1="290" x2="290" y1="80" y2="82"/>
<line clip-path="url(#clipPath2)" fill="none" x1="290" x2="290" y1="592" y2="590"/>
<line clip-path="url(#clipPath2)" fill="none" x1="310" x2="310" y1="80" y2="82"/>
<line clip-path="url(#clipPath2)" fill="none" x1="310" x2="310" y1="592" y2="590"/>
<line clip-path="url(#clipPath2)" fill="none" x1="330" x2="330" y1="80" y2="82"/>
<line clip-path="url(#clipPath2)" fill="none" x1="330" x2="330" y1="592" y2="590"/>
<line clip-path="url(#clipPath2)" fill="none" x1="350" x2="350" y1="78" y2="82"/>
<line clip-path="url(#clipPath2)" fill="none" x1="350" x2="350" y1="594" y2="590"/>
<text x="344" font-size="11" y="70" clip-path="url(#clipPath2)" stroke="none" xml:space="preserve">15</text>
<text x="344" font-size="11" y="605" clip-path="url(#clipPath2)" stroke="none" xml:space="preserve">15</text>
<line clip-path="url(#clipPath2)" fill="none" x1="369" x2="369" y1="80" y2="82"/>
<line clip-path="url(#clipPath2)" fill="none" x1="369" x2="369" y1="592" y2="590"/>
<line clip-path="url(#clipPath2)" fill="none" x1="389" x2="389" y1="80" y2="82"/>
<line clip-path="url(#clipPath2)" fill="none" x1="389" x2="389" y1="592" y2="590"/>
<line clip-path="url(#clipPath2)" fill="none" x1="409" x2="409" y1="80" y2="82"/>
<line clip-path="url(#clipPath2)" fill="none" x1="409" x2="409" y1="592" y2="590"/>
<line clip-path="url(#clipPath2)" fill="none" x1="429" x2="429" y1="80" y2="82"/>
<line clip-path="url(#clipPath2)" fill="none" x1="429" x2="429" y1="592" y2="590"/>
<line clip-path="url(#clipPath2)" fill="none" x1="449" x2="449" y1="78" y2="82"/>
<line clip-path="url(#clipPath2)" fill="none" x1="449" x2="449" y1="594" y2="590"/>
<text x="443" font-size="11" y="70" clip-path="url(#clipPath2)" stroke="none" xml:space="preserve">20</text>
<text x="443" font-size="11" y="605" clip-path="url(#clipPath2)" stroke="none" xml:space="preserve">20</text>
<line clip-path="url(#clipPath2)" fill="none" x1="469" x2="469" y1="80" y2="82"/>
<line clip-path="url(#clipPath2)" fill="none" x1="469" x2="469" y1="592" y2="590"/>
<line clip-path="url(#clipPath2)" fill="none" x1="489" x2="489" y1="80" y2="82"/>
<line clip-path="url(#clipPath2)" fill="none" x1="489" x2="489" y1="592" y2="590"/>
<line clip-path="url(#clipPath2)" fill="none" x1="509" x2="509" y1="80" y2="82"/>
<line clip-path="url(#clipPath2)" fill="none" x1="509" x2="509" y1="592" y2="590"/>
<line clip-path="url(#clipPath2)" fill="none" x1="529" x2="529" y1="80" y2="82"/>
<line clip-path="url(#clipPath2)" fill="none" x1="529" x2="529" y1="592" y2="590"/>
<line clip-path="url(#clipPath2)" fill="none" x1="549" x2="549" y1="78" y2="82"/>
<line clip-path="url(#clipPath2)" fill="none" x1="549" x2="549" y1="594" y2="590"/>
<text x="543" font-size="11" y="70" clip-path="url(#clipPath2)" stroke="none" xml:space="preserve">25</text>
<text x="543" font-size="11" y="605" clip-path="url(#clipPath2)" stroke="none" xml:space="preserve">25</text>
<line clip-path="url(#clipPath2)" fill="none" x1="569" x2="569" y1="80" y2="82"/>
<line clip-path="url(#clipPath2)" fill="none" x1="569" x2="569" y1="592" y2="590"/>
<line clip-path="url(#clipPath2)" fill="none" x1="589" x2="589" y1="80" y2="82"/>
<line clip-path="url(#clipPath2)" fill="none" x1="589" x2="589" y1="592" y2="590"/>
<line clip-path="url(#clipPath2)" fill="none" x1="609" x2="609" y1="80" y2="82"/>
<line clip-path="url(#clipPath2)" fill="none" x1="609" x2="609" y1="592" y2="590"/>
<line clip-path="url(#clipPath2)" fill="none" x1="629" x2="629" y1="80" y2="82"/>
<line clip-path="url(#clipPath2)" fill="none" x1="629" x2="629" y1="592" y2="590"/>
<line clip-path="url(#clipPath2)" fill="none" x1="649" x2="649" y1="78" y2="82"/>
<line clip-path="url(#clipPath2)" fill="none" x1="649" x2="649" y1="594" y2="590"/>
<text x="643" font-size="11" y="70" clip-path="url(#clipPath2)" stroke="none" xml:space="preserve">30</text>
<text x="643" font-size="11" y="605" clip-path="url(#clipPath2)" stroke="none" xml:space="preserve">30</text>
<line clip-path="url(#clipPath2)" fill="none" x1="669" x2="669" y1="80" y2="82"/>
<line clip-path="url(#clipPath2)" fill="none" x1="669" x2="669" y1="592" y2="590"/>
<line clip-path="url(#clipPath2)" fill="none" x1="688" x2="688" y1="80" y2="82"/>
<line clip-path="url(#clipPath2)" fill="none" x1="688" x2="688" y1="592" y2="590"/>
<line clip-path="url(#clipPath2)" fill="none" x1="708" x2="708" y1="80" y2="82"/>
<line clip-path="url(#clipPath2)" fill="none" x1="708" x2="708" y1="592" y2="590"/>
<line clip-path="url(#clipPath2)" fill="none" x1="728" x2="728" y1="80" y2="82"/>
<line clip-path="url(#clipPath2)" fill="none" x1="728" x2="728" y1="592" y2="590"/>
<line clip-path="url(#clipPath2)" fill="none" x1="748" x2="748" y1="78" y2="82"/>
<line clip-path="url(#clipPath2)" fill="none" x1="748" x2="748" y1="594" y2="590"/>
<text x="742" font-size="11" y="70" clip-path="url(#clipPath2)" stroke="none" xml:space="preserve">35</text>
<text x="742" font-size="11" y="605" clip-path="url(#clipPath2)" stroke="none" xml:space="preserve">35</text>
<line clip-path="url(#clipPath2)" fill="none" x1="768" x2="768" y1="80" y2="82"/>
<line clip-path="url(#clipPath2)" fill="none" x1="768" x2="768" y1="592" y2="590"/>
<line clip-path="url(#clipPath2)" fill="none" x1="788" x2="788" y1="80" y2="82"/>
<line clip-path="url(#clipPath2)" fill="none" x1="788" x2="788" y1="592" y2="590"/>
<line clip-path="url(#clipPath2)" fill="none" x1="808" x2="808" y1="80" y2="82"/>
<line clip-path="url(#clipPath2)" fill="none" x1="808" x2="808" y1="592" y2="590"/>
<line clip-path="url(#clipPath2)" fill="none" x1="828" x2="828" y1="80" y2="82"/>
<line clip-path="url(#clipPath2)" fill="none" x1="828" x2="828" y1="592" y2="590"/>
<line clip-path="url(#clipPath2)" fill="none" x1="848" x2="848" y1="78" y2="82"/>
<line clip-path="url(#clipPath2)" fill="none" x1="848" x2="848" y1="594" y2="590"/>
<text x="842" font-size="11" y="70" clip-path="url(#clipPath2)" stroke="none" xml:space="preserve">40</text>
<text x="842" font-size="11" y="605" clip-path="url(#clipPath2)" stroke="none" xml:space="preserve">40</text>
<line clip-path="url(#clipPath2)" fill="none" x1="868" x2="868" y1="80" y2="82"/>
<line clip-path="url(#clipPath2)" fill="none" x1="868" x2="868" y1="592" y2="590"/>
<line clip-path="url(#clipPath2)" fill="none" x1="888" x2="888" y1="80" y2="82"/>
<line clip-path="url(#clipPath2)" fill="none" x1="888" x2="888" y1="592" y2="590"/>
<line clip-path="url(#clipPath2)" fill="none" x1="908" x2="908" y1="80" y2="82"/>
<line clip-path="url(#clipPath2)" fill="none" x1="908" x2="908" y1="592" y2="590"/>
<line clip-path="url(#clipPath2)" fill="none" x1="928" x2="928" y1="80" y2="82"/>
<line clip-path="url(#clipPath2)" fill="none" x1="928" x2="928" y1="592" y2="590"/>
<line clip-path="url(#clipPath2)" fill="none" x1="948" x2="948" y1="78" y2="82"/>
<line clip-path="url(#clipPath2)" fill="none" x1="948" x2="948" y1="594" y2="590"/>
<text x="942" font-size="11" y="70" clip-path="url(#clipPath2)" stroke="none" xml:space="preserve">45</text>
<text x="942" font-size="11" y="605" clip-path="url(#clipPath2)" stroke="none" xml:space="preserve">45</text>
<line clip-path="url(#clipPath2)" fill="none" x1="968" x2="968" y1="80" y2="82"/>
<line clip-path="url(#clipPath2)" fill="none" x1="968" x2="968" y1="592" y2="590"/>
<line clip-path="url(#clipPath2)" fill="none" x1="987" x2="987" y1="80" y2="82"/>
<line clip-path="url(#clipPath2)" fill="none" x1="987" x2="987" y1="592" y2="590"/>
<line clip-path="url(#clipPath2)" fill="none" x1="1007" x2="1007" y1="80" y2="82"/>
<line clip-path="url(#clipPath2)" fill="none" x1="1007" x2="1007" y1="592" y2="590"/>
<line clip-path="url(#clipPath2)" fill="none" x1="1027" x2="1027" y1="80" y2="82"/>
<line clip-path="url(#clipPath2)" fill="none" x1="1027" x2="1027" y1="592" y2="590"/>
<line clip-path="url(#clipPath2)" fill="none" x1="1047" x2="1047" y1="78" y2="82"/>
<line clip-path="url(#clipPath2)" fill="none" x1="1047" x2="1047" y1="594" y2="590"/>
<text x="1041" font-size="11" y="70" clip-path="url(#clipPath2)" stroke="none" xml:space="preserve">50</text>
<text x="1041" font-size="11" y="605" clip-path="url(#clipPath2)" stroke="none" xml:space="preserve">50</text>
<line clip-path="url(#clipPath2)" fill="none" x1="1067" x2="1067" y1="80" y2="82"/>
<line clip-path="url(#clipPath2)" fill="none" x1="1067" x2="1067" y1="592" y2="590"/>
<line clip-path="url(#clipPath2)" fill="none" x1="1087" x2="1087" y1="80" y2="82"/>
<line clip-path="url(#clipPath2)" fill="none" x1="1087" x2="1087" y1="592" y2="590"/>
<line clip-path="url(#clipPath2)" fill="none" x1="1107" x2="1107" y1="80" y2="82"/>
<line clip-path="url(#clipPath2)" fill="none" x1="1107" x2="1107" y1="592" y2="590"/>
<line clip-path="url(#clipPath2)" fill="none" x1="1127" x2="1127" y1="80" y2="82"/>
<line clip-path="url(#clipPath2)" fill="none" x1="1127" x2="1127" y1="592" y2="590"/>
<line clip-path="url(#clipPath2)" fill="none" x1="49" x2="49" y1="84" y2="588"/>
<line clip-path="url(#clipPath2)" fill="none" x1="1143" x2="1143" y1="84" y2="588"/>
<line clip-path="url(#clipPath2)" fill="none" x1="45" x2="49" y1="588" y2="588"/>
<line clip-path="url(#clipPath2)" fill="none" x1="1147" x2="1143" y1="588" y2="588"/>
<text x="37" font-size="11" y="590" clip-path="url(#clipPath2)" stroke="none" xml:space="preserve">0</text>
<text x="1150" font-size="11" y="590" clip-path="url(#clipPath2)" stroke="none" xml:space="preserve">0</text>
<line clip-path="url(#clipPath2)" fill="none" x1="47" x2="49" y1="569" y2="569"/>
<line clip-path="url(#clipPath2)" fill="none" x1="1145" x2="1143" y1="569" y2="569"/>
<line clip-path="url(#clipPath2)" fill="none" x1="47" x2="49" y1="550" y2="550"/>
<line clip-path="url(#clipPath2)" fill="none" x1="1145" x2="1143" y1="550" y2="550"/>
<line clip-path="url(#clipPath2)" fill="none" x1="47" x2="49" y1="532" y2="532"/>
<line clip-path="url(#clipPath2)" fill="none" x1="1145" x2="1143" y1="532" y2="532"/>
<line clip-path="url(#clipPath2)" fill="none" x1="47" x2="49" y1="513" y2="513"/>
<line clip-path="url(#clipPath2)" fill="none" x1="1145" x2="1143" y1="513" y2="513"/>
<line clip-path="url(#clipPath2)" fill="none" x1="45" x2="49" y1="494" y2="494"/>
<line clip-path="url(#clipPath2)" fill="none" x1="1147" x2="1143" y1="494" y2="494"/>
<text x="30" font-size="11" y="496" clip-path="url(#clipPath2)" stroke="none" xml:space="preserve">10</text>
<text x="1150" font-size="11" y="496" clip-path="url(#clipPath2)" stroke="none" xml:space="preserve">10</text>
<line clip-path="url(#clipPath2)" fill="none" x1="47" x2="49" y1="476" y2="476"/>
<line clip-path="url(#clipPath2)" fill="none" x1="1145" x2="1143" y1="476" y2="476"/>
<line clip-path="url(#clipPath2)" fill="none" x1="47" x2="49" y1="457" y2="457"/>
<line clip-path="url(#clipPath2)" fill="none" x1="1145" x2="1143" y1="457" y2="457"/>
<line clip-path="url(#clipPath2)" fill="none" x1="47" x2="49" y1="438" y2="438"/>
<line clip-path="url(#clipPath2)" fill="none" x1="1145" x2="1143" y1="438" y2="438"/>
<line clip-path="url(#clipPath2)" fill="none" x1="47" x2="49" y1="420" y2="420"/>
<line clip-path="url(#clipPath2)" fill="none" x1="1145" x2="1143" y1="420" y2="420"/>
<line clip-path="url(#clipPath2)" fill="none" x1="45" x2="49" y1="401" y2="401"/>
<line clip-path="url(#clipPath2)" fill="none" x1="1147" x2="1143" y1="401" y2="401"/>
<text x="30" font-size="11" y="403" clip-path="url(#clipPath2)" stroke="none" xml:space="preserve">20</text>
<text x="1150" font-size="11" y="403" clip-path="url(#clipPath2)" stroke="none" xml:space="preserve">20</text>
<line clip-path="url(#clipPath2)" fill="none" x1="47" x2="49" y1="382" y2="382"/>
<line clip-path="url(#clipPath2)" fill="none" x1="1145" x2="1143" y1="382" y2="382"/>
<line clip-path="url(#clipPath2)" fill="none" x1="47" x2="49" y1="364" y2="364"/>
<line clip-path="url(#clipPath2)" fill="none" x1="1145" x2="1143" y1="364" y2="364"/>
<line clip-path="url(#clipPath2)" fill="none" x1="47" x2="49" y1="345" y2="345"/>
<line clip-path="url(#clipPath2)" fill="none" x1="1145" x2="1143" y1="345" y2="345"/>
<line clip-path="url(#clipPath2)" fill="none" x1="47" x2="49" y1="326" y2="326"/>
<line clip-path="url(#clipPath2)" fill="none" x1="1145" x2="1143" y1="326" y2="326"/>
<line clip-path="url(#clipPath2)" fill="none" x1="45" x2="49" y1="308" y2="308"/>
<line clip-path="url(#clipPath2)" fill="none" x1="1147" x2="1143" y1="308" y2="308"/>
<text x="30" font-size="11" y="310" clip-path="url(#clipPath2)" stroke="none" xml:space="preserve">30</text>
<text x="1150" font-size="11" y="310" clip-path="url(#clipPath2)" stroke="none" xml:space="preserve">30</text>
<line clip-path="url(#clipPath2)" fill="none" x1="47" x2="49" y1="289" y2="289"/>
<line clip-path="url(#clipPath2)" fill="none" x1="1145" x2="1143" y1="289" y2="289"/>
<line clip-path="url(#clipPath2)" fill="none" x1="47" x2="49" y1="270" y2="270"/>
<line clip-path="url(#clipPath2)" fill="none" x1="1145" x2="1143" y1="270" y2="270"/>
<line clip-path="url(#clipPath2)" fill="none" x1="47" x2="49" y1="252" y2="252"/>
<line clip-path="url(#clipPath2)" fill="none" x1="1145" x2="1143" y1="252" y2="252"/>
<line clip-path="url(#clipPath2)" fill="none" x1="47" x2="49" y1="233" y2="233"/>
<line clip-path="url(#clipPath2)" fill="none" x1="1145" x2="1143" y1="233" y2="233"/>
<line clip-path="url(#clipPath2)" fill="none" x1="45" x2="49" y1="214" y2="214"/>
<line clip-path="url(#clipPath2)" fill="none" x1="1147" x2="1143" y1="214" y2="214"/>
<text x="30" font-size="11" y="216" clip-path="url(#clipPath2)" stroke="none" xml:space="preserve">40</text>
<text x="1150" font-size="11" y="216" clip-path="url(#clipPath2)" stroke="none" xml:space="preserve">40</text>
<line clip-path="url(#clipPath2)" fill="none" x1="47" x2="49" y1="196" y2="196"/>
<line clip-path="url(#clipPath2)" fill="none" x1="1145" x2="1143" y1="196" y2="196"/>
<line clip-path="url(#clipPath2)" fill="none" x1="47" x2="49" y1="177" y2="177"/>
<line clip-path="url(#clipPath2)" fill="none" x1="1145" x2="1143" y1="177" y2="177"/>
<line clip-path="url(#clipPath2)" fill="none" x1="47" x2="49" y1="158" y2="158"/>
<line clip-path="url(#clipPath2)" fill="none" x1="1145" x2="1143" y1="158" y2="158"/>
<line clip-path="url(#clipPath2)" fill="none" x1="47" x2="49" y1="140" y2="140"/>
<line clip-path="url(#clipPath2)" fill="none" x1="1145" x2="1143" y1="140" y2="140"/>
<line clip-path="url(#clipPath2)" fill="none" x1="45" x2="49" y1="121" y2="121"/>
<line clip-path="url(#clipPath2)" fill="none" x1="1147" x2="1143" y1="121" y2="121"/>
<text x="30" font-size="11" y="123" clip-path="url(#clipPath2)" stroke="none" xml:space="preserve">50</text>
<text x="1150" font-size="11" y="123" clip-path="url(#clipPath2)" stroke="none" xml:space="preserve">50</text>
<line clip-path="url(#clipPath2)" fill="none" x1="47" x2="49" y1="102" y2="102"/>
<line clip-path="url(#clipPath2)" fill="none" x1="1145" x2="1143" y1="102" y2="102"/>
<line clip-path="url(#clipPath2)" fill="none" x1="47" x2="49" y1="84" y2="84"/>
<line clip-path="url(#clipPath2)" fill="none" x1="1145" x2="1143" y1="84" y2="84"/>
</g>
</g>
</svg>
